<svg width="1672" height="414" viewBox="0 0 1672 414" fill="none" xmlns="http://www.w3.org/2000/svg">
<path d="M75.754 35.7201L53.043 100.375H97.211L75.754 35.7201ZM88.896 10.2411L134.958 141.088C137.977 149.791 141.164 156.953 144.568 162.571C147.93 168.191 151.765 172.939 156.16 176.851H109.836C112.51 173.605 114.491 170.773 115.784 168.442C117.033 166.068 117.68 164.029 117.68 162.321C117.68 161.363 117.42 159.949 116.905 158.076C116.387 156.202 115.697 153.953 114.749 151.332L100.876 110.866H48.863L33.609 153.911C32.921 155.702 32.404 157.325 32.101 158.784C31.758 160.239 31.586 161.695 31.586 163.071C31.586 165.112 32.144 167.193 33.352 169.4C34.515 171.606 36.496 174.102 39.255 176.851H0C3.962 173.104 7.62399 168.442 10.986 162.821C14.348 157.2 17.925 149.748 21.718 140.38L71.314 16.2371L88.896 10.2411Z" fill="white"/>
<path d="M194.424 58.6591V72.4391C207.051 67.2361 216.356 63.7791 222.304 62.1131C228.293 60.4501 233.548 59.6171 238.118 59.6171C248.029 59.6171 255.441 63.1141 260.308 70.1081C265.179 77.1021 267.635 87.7181 267.635 101.956V140.881C267.635 149.166 268.41 155.909 269.919 161.072C271.427 166.235 273.838 171.481 277.113 176.851H236.307C239.582 171.313 242.038 165.943 243.589 160.7C245.14 155.452 245.918 148.833 245.918 140.881V108.907C245.918 95.8351 243.331 86.8021 238.118 81.8471C232.945 76.8941 223.51 74.3951 209.892 74.3951C207.351 74.3951 204.809 74.4381 202.223 74.5631C199.596 74.6881 197.01 74.9381 194.424 75.2281V142.339C194.424 149.999 195.156 156.327 196.622 161.363C198.131 166.4 200.499 171.563 203.774 176.851H163.356C166.63 171.481 169.002 166.235 170.508 161.072C171.973 155.909 172.706 149.166 172.706 140.881V93.1711C172.706 88.3011 171.931 83.6801 170.38 79.3901C168.829 75.0631 166.243 70.4401 162.623 65.4851L194.424 58.6591Z" fill="white"/>
<path d="M354.722 68.9421C344.811 68.9421 337.054 73.1471 331.496 81.5141C325.938 89.8841 323.179 101.58 323.179 116.609C323.179 133.596 326.153 146.959 332.141 156.742C338.132 166.485 346.234 171.356 356.53 171.356C366.443 171.356 374.198 167.151 379.759 158.783C385.317 150.414 388.073 138.717 388.073 123.688C388.073 106.786 385.059 93.4211 379.068 83.6381C373.035 73.8551 364.935 68.9421 354.722 68.9421ZM298.057 120.149C298.057 102.664 303.572 88.2181 314.649 76.8111C325.723 65.3621 339.683 59.6561 356.53 59.6561C372.907 59.6561 386.48 65.3621 397.166 76.8111C407.855 88.2181 413.195 102.746 413.195 120.399C413.195 137.884 407.68 152.29 396.648 163.614C385.617 174.978 371.656 180.641 354.722 180.641C338.347 180.641 324.775 174.978 314.086 163.614C303.402 152.29 298.057 137.801 298.057 120.149Z" fill="white"/>
<path d="M506.272 61.2401H551.864C545.788 64.6551 539.969 68.3171 534.369 72.2311C528.768 76.1041 523.252 80.2661 517.864 84.6781L491.752 106.744L534.153 159.657C537.34 163.571 540.705 166.986 544.149 169.897C547.596 172.814 551.088 175.145 554.62 176.851H518.124L471.155 114.403L507.265 78.6851C508.514 77.4771 509.504 76.2291 510.152 75.0201C510.84 73.8121 511.188 72.6071 511.188 71.4811C511.188 70.1901 510.755 68.6521 509.937 66.9011C509.074 65.1521 507.868 63.2791 506.272 61.2401ZM467.232 0V140.881C467.232 148.75 468.008 155.369 469.516 160.615C471.025 165.903 473.481 171.313 476.843 176.851H436.683C439.957 171.481 442.328 166.235 443.837 161.072C445.3 155.909 446.033 149.166 446.033 140.881V34.5121C446.033 30.0571 445.17 25.5201 443.491 20.9821C441.81 16.4041 439.224 11.6571 435.689 6.7041L467.232 0Z" fill="white"/>
<path d="M594.996 0V72.4791C607.623 67.2761 616.931 63.8221 622.876 62.1561C628.867 60.4921 634.123 59.6571 638.69 59.6571C648.601 59.6571 656.013 63.1561 660.883 70.1501C665.751 77.1441 668.207 87.7601 668.207 101.996V140.881C668.207 149.166 668.983 155.909 670.493 161.072C671.999 166.235 674.413 171.481 677.688 176.851H636.882C640.156 171.313 642.61 165.943 644.163 160.7C645.714 155.452 646.49 148.833 646.49 140.881V108.95C646.49 95.8351 643.903 86.8421 638.69 81.8891C633.52 76.9341 624.082 74.4381 610.467 74.4381C607.925 74.4381 605.382 74.4801 602.798 74.6031C600.169 74.7281 597.582 74.9781 594.996 75.2711V142.339C594.996 149.999 595.731 156.327 597.197 161.363C598.703 166.4 601.074 171.563 604.348 176.851H563.928C567.202 171.481 569.574 166.235 571.082 161.072C572.548 155.909 573.281 149.166 573.281 140.881V41.7161C573.281 35.7631 572.418 30.1001 570.694 24.6891C568.971 19.2761 566.042 13.2801 561.904 6.7041L594.996 0Z" fill="white"/>
<path d="M731.467 58.659V140.881C731.467 149.166 732.24 155.909 733.793 161.072C735.344 166.235 737.801 171.481 741.075 176.851H700.139C703.499 171.313 705.958 165.943 707.463 160.7C708.972 155.452 709.75 148.833 709.75 140.881V93.1711C709.75 88.716 708.887 84.221 707.206 79.683C705.525 75.186 702.941 70.44 699.406 65.485L731.467 58.659ZM720.133 3.03925C724.14 3.03925 727.46 4.28734 730.044 6.74404C732.585 9.24304 733.879 12.447 733.879 16.444C733.879 20.817 732.715 24.189 730.347 26.52C727.975 28.809 724.571 29.975 720.133 29.975C715.911 29.975 712.634 28.809 710.265 26.435C707.896 24.104 706.73 20.732 706.73 16.444C706.73 12.447 707.981 9.24304 710.438 6.74404C712.937 4.28734 716.168 3.03925 720.133 3.03925Z" fill="white"/>
<path d="M830.76 59.3911V73.058C842.01 67.814 850.34 64.388 855.73 62.777C861.11 61.165 866.11 60.338 870.77 60.338C875.65 60.338 880.14 61.4561 884.33 63.6861C888.47 65.8751 891.89 68.9291 894.58 72.8111C906 67.8141 914.68 64.469 920.49 62.818C926.35 61.165 931.73 60.338 936.69 60.338C948.19 60.338 956.53 63.602 961.62 70.129C966.7 76.694 969.27 87.435 969.27 102.344V142.403C969.27 150.002 969.99 156.279 971.45 161.278C972.94 166.277 975.29 171.396 978.54 176.642H938.45C941.69 171.314 944.05 166.111 945.54 160.99C946.99 155.869 947.72 149.178 947.72 140.959V109.239C947.72 96.187 945.16 87.1841 940.03 82.3111C934.85 77.4401 925.36 75 911.52 75C909.33 75 906.94 75.043 904.29 75.166C901.68 75.291 898.9 75.538 895.95 75.827C897.41 77.935 898.43 80.989 899.08 84.913C899.72 88.879 900.01 94.661 900.01 102.344V140.959C900.01 149.178 900.78 155.869 902.28 160.99C903.78 166.111 906.21 171.314 909.55 176.642H868.94C872.27 171.148 874.71 165.82 876.2 160.617C877.7 155.412 878.47 148.846 878.47 140.959V109.239C878.47 96.559 875.95 87.72 870.95 82.642C865.9 77.562 857.31 75 845.09 75C843.08 75 840.94 75.043 838.63 75.166C836.28 75.291 833.67 75.538 830.76 75.827V140.959C830.76 149.178 831.53 155.869 833.03 160.99C834.52 166.111 836.96 171.314 840.3 176.642H799.685C803.02 171.148 805.456 165.82 806.952 160.617C808.448 155.412 809.218 148.846 809.218 140.959V93.627C809.218 89.208 808.364 84.747 806.697 80.246C805.029 75.786 802.465 71.078 798.959 66.164L830.76 59.3911Z" fill="white"/>
<path d="M1027.28 59.3911V127.866C1027.28 142.734 1029.5 152.357 1033.94 156.817C1038.35 161.237 1046.72 163.467 1059.08 163.467C1061.47 163.467 1064.12 163.383 1066.99 163.219C1069.85 163.054 1073.49 162.724 1077.97 162.27V93.627C1077.97 89.207 1077.12 84.747 1075.45 80.246C1073.79 75.785 1071.22 71.078 1067.72 66.163L1099.52 59.3911V145.171C1099.52 149.754 1100.33 154.255 1101.96 158.593C1103.58 162.972 1106.19 167.555 1109.78 172.428L1077.97 179.41V164.291C1068.87 169.249 1060.96 172.801 1054.21 175.031C1047.41 177.218 1041.25 178.336 1035.65 178.336C1024.8 178.336 1017.1 175.485 1012.57 169.744C1008 164.003 1005.73 154.092 1005.73 139.966V93.627C1005.73 89.207 1004.88 84.747 1003.16 80.246C1001.46 75.785 998.89 71.078 995.47 66.163L1027.28 59.3911Z" fill="white"/>
<path d="M1207.8 64.387V90.861C1195.36 81.774 1186.85 75.951 1182.37 73.389C1177.83 70.871 1174.28 69.59 1171.72 69.59C1167.1 69.59 1163.17 71.203 1159.88 74.423C1156.59 77.643 1154.92 81.567 1154.92 86.15C1154.92 89.868 1156.29 93.213 1158.98 96.23C1161.72 99.287 1166.03 102.259 1171.98 105.232L1189.12 113.946C1197.8 118.409 1203.87 122.826 1207.29 127.205C1210.7 131.583 1212.42 137.034 1212.42 143.477C1212.42 154.916 1208.53 163.84 1200.79 170.158C1193.01 176.475 1182.02 179.658 1167.83 179.658C1163.17 179.658 1157.96 179.201 1152.23 178.254C1146.5 177.343 1140.39 175.98 1133.89 174.204V146.368C1146.84 156.611 1155.73 163.176 1160.56 166.111C1165.39 169.002 1169.37 170.446 1172.49 170.446C1177.66 170.446 1182.11 168.629 1185.83 164.995C1189.55 161.362 1191.38 156.983 1191.38 151.818C1191.38 147.608 1190.23 144.097 1187.92 141.247C1185.66 138.356 1181.38 135.465 1175.23 132.451L1161.93 126.049C1152.74 121.629 1146.07 116.796 1141.84 111.593C1137.61 106.388 1135.51 100.402 1135.51 93.627C1135.51 83.716 1139.27 75.704 1146.8 69.59C1154.32 63.438 1164.2 60.381 1176.47 60.381C1181 60.381 1185.91 60.71 1191.26 61.412C1196.6 62.116 1202.11 63.106 1207.8 64.387Z" fill="white"/>
<path d="M1336.77 114.237H1258.12V114.979C1258.12 132.119 1262.39 144.758 1270.9 152.852C1279.4 160.948 1292.79 164.995 1310.95 164.995C1314.89 164.995 1319.12 164.748 1323.61 164.209C1328.14 163.674 1332.88 162.931 1337.88 161.979C1331.05 167.887 1323.61 172.263 1315.53 175.113C1307.49 177.963 1298.64 179.41 1289.07 179.41C1272.69 179.41 1259.61 174.204 1249.87 163.755C1240.08 153.306 1235.2 139.346 1235.2 121.836C1235.2 113.285 1236.49 105.398 1239.01 98.1711C1241.57 90.9831 1245.33 84.499 1250.38 78.761C1255.47 73.057 1261.49 68.556 1268.46 65.295C1275.43 62.032 1282.57 60.381 1289.92 60.381C1304.71 60.381 1316.08 64.966 1324.08 74.175C1332.03 83.384 1336.26 96.725 1336.77 114.237ZM1310.87 101.31C1310.78 90.736 1308.82 82.805 1304.93 77.521C1301.04 72.233 1295.27 69.59 1287.57 69.59C1278.81 69.59 1271.84 72.8941 1266.75 79.5031C1261.66 86.1091 1258.89 95.4841 1258.37 107.587L1310.87 101.31Z" fill="white"/>
<path d="M1387.08 59.3911V127.866C1387.08 142.734 1389.31 152.357 1393.76 156.817C1398.16 161.237 1406.54 163.467 1418.89 163.467C1421.28 163.467 1423.93 163.383 1426.8 163.219C1429.66 163.054 1433.29 162.724 1437.78 162.27V93.627C1437.78 89.207 1436.93 84.747 1435.26 80.246C1433.59 75.785 1431.03 71.078 1427.52 66.163L1459.33 59.3911V145.171C1459.33 149.754 1460.14 154.255 1461.77 158.593C1463.39 162.972 1466 167.555 1469.59 172.428L1437.78 179.41V164.291C1428.68 169.249 1420.77 172.801 1414.02 175.031C1407.22 177.218 1401.06 178.336 1395.46 178.336C1384.61 178.336 1376.91 175.485 1372.38 169.744C1367.81 164.003 1365.54 154.092 1365.54 139.966V93.627C1365.54 89.207 1364.68 84.747 1362.98 80.246C1361.27 75.785 1358.7 71.078 1355.28 66.163L1387.08 59.3911Z" fill="white"/>
<path d="M1524.22 59.3911V73.058C1535.46 67.814 1543.8 64.388 1549.19 62.778C1554.57 61.165 1559.57 60.338 1564.23 60.338C1569.11 60.338 1573.59 61.4561 1577.78 63.6861C1581.93 65.8751 1585.35 68.93 1588.04 72.8111C1599.46 67.8151 1608.14 64.469 1613.95 62.818C1619.81 61.165 1625.19 60.338 1630.15 60.338C1641.65 60.338 1649.98 63.602 1655.07 70.129C1660.16 76.694 1662.72 87.435 1662.72 102.344V142.403C1662.72 150.002 1663.45 156.279 1664.9 161.278C1666.4 166.277 1668.75 171.396 1672 176.642H1631.9C1635.15 171.314 1637.5 166.111 1639 160.99C1640.45 155.869 1641.18 149.178 1641.18 140.959V109.239C1641.18 96.187 1638.61 87.1841 1633.48 82.3111C1628.31 77.4401 1618.82 75 1604.97 75C1602.79 75 1600.4 75.044 1597.75 75.166C1595.14 75.291 1592.36 75.539 1589.41 75.827C1590.86 77.935 1591.89 80.989 1592.53 84.913C1593.17 88.879 1593.47 94.661 1593.47 102.344V140.959C1593.47 149.178 1594.24 155.869 1595.74 160.99C1597.23 166.111 1599.67 171.314 1603.01 176.642H1562.39C1565.73 171.148 1568.16 165.82 1569.66 160.617C1571.16 155.412 1571.93 148.846 1571.93 140.959V109.239C1571.93 96.559 1569.4 87.7201 1564.4 82.6431C1559.36 77.5621 1550.77 75 1538.54 75C1536.53 75 1534.4 75.044 1532.09 75.166C1529.73 75.291 1527.13 75.539 1524.22 75.827V140.959C1524.22 149.178 1524.99 155.869 1526.49 160.99C1527.98 166.111 1530.42 171.314 1533.75 176.642H1493.14C1496.48 171.148 1498.91 165.82 1500.41 160.617C1501.91 155.412 1502.67 148.846 1502.67 140.959V93.627C1502.67 89.208 1501.82 84.748 1500.15 80.246C1498.49 75.786 1495.92 71.078 1492.42 66.164L1524.22 59.3911Z" fill="white"/>
<path d="M245.449 301.856C245.449 293.398 243.946 287.026 240.942 282.674C237.939 278.322 233.578 276.126 227.828 276.126C223.25 276.126 219.038 277.756 215.117 281.012C211.234 284.268 207.975 288.867 205.409 294.813C202.332 301.927 199.988 309.252 198.378 316.792C196.765 324.329 195.96 331.726 195.96 338.981C195.96 347.971 197.424 354.766 200.318 359.331C203.211 363.896 207.571 366.161 213.358 366.161C217.939 366.161 222.186 364.533 226.069 361.276C229.99 358.022 233.287 353.385 235.996 347.298C239 340.573 241.343 333.283 242.992 325.462C244.641 317.605 245.449 309.75 245.449 301.856ZM229.55 269.298C240.428 269.298 248.817 272.376 254.678 278.533C260.539 284.691 263.471 293.434 263.471 304.76C263.471 312.157 262.556 319.479 260.723 326.701C258.89 333.921 256.365 340.362 253.068 346.023C247.608 355.579 241.637 362.445 235.081 366.657C228.523 370.868 220.612 372.992 211.308 372.992C200.796 372.992 192.588 369.877 186.73 363.613C180.867 357.349 177.938 348.571 177.938 337.318C177.938 330.204 178.707 323.233 180.246 316.438C181.784 309.607 183.944 303.625 186.73 298.424C192.113 288.549 198.268 281.223 205.263 276.448C212.223 271.669 220.318 269.298 229.55 269.298Z" fill="white"/>
<path d="M370.027 222.865L366.073 241.939L349.661 230.226C348.087 229.198 346.51 228.42 344.935 227.89C343.361 227.36 341.786 227.11 340.212 227.11C332.994 227.11 327.573 230.261 323.946 236.595C320.319 242.931 317.684 254.54 315.961 271.491H341.712L340.429 279.382H314.642L299.953 359.19C296.18 379.787 291.053 393.978 284.678 401.8C278.265 409.622 268.961 413.515 256.803 413.515C253.651 413.515 250.684 413.161 247.9 412.488C245.117 411.779 242.441 410.718 239.951 409.267L243.614 389.236L256.803 401.587C258.157 402.897 259.438 403.853 260.611 404.418C261.784 404.949 263.029 405.232 264.31 405.232C268.412 405.232 271.673 402.933 274.127 398.332C276.619 393.732 278.927 385.202 281.051 372.744L297.059 279.382H283.615L284.934 271.491H298.56C300.063 252.205 304.423 238.647 311.6 230.899C318.78 223.112 330.356 219.218 346.328 219.218C350.027 219.218 353.874 219.501 357.795 220.103C361.713 220.705 365.815 221.59 370.027 222.865Z" fill="white"/>
<path d="M436.811 219.43V281.047C447.543 276.623 455.456 273.686 460.512 272.271C465.604 270.853 470.071 270.147 473.954 270.147C482.381 270.147 488.681 273.12 492.819 279.063C496.96 285.009 499.046 294.035 499.046 306.139V339.193C499.046 346.237 499.708 351.969 500.988 356.358C502.269 360.746 504.321 365.205 507.107 369.77H472.418C475.201 365.064 477.289 360.499 478.608 356.039C479.925 351.58 480.584 345.952 480.584 339.193V312.049C480.584 300.902 478.389 293.255 473.954 289.045C469.56 284.833 461.537 282.709 449.961 282.709C447.801 282.709 445.639 282.745 443.441 282.852C441.207 282.957 439.009 283.168 436.811 283.418V340.432C436.811 346.944 437.434 352.322 438.679 356.605C439.959 360.887 441.976 365.276 444.76 369.77H410.4C413.186 365.205 415.2 360.746 416.48 356.358C417.725 351.969 418.349 346.237 418.349 339.193V254.892C418.349 249.833 417.615 245.019 416.151 240.417C414.686 235.817 412.194 230.72 408.68 225.129L436.811 219.43Z" fill="white"/>
<path d="M580.736 322.207C566.706 323.303 557.073 325.284 551.759 328.115C546.447 330.947 543.81 335.37 543.81 341.387C543.81 347.05 545.936 351.474 550.149 354.623C554.399 357.809 560.331 359.4 567.915 359.4C569.27 359.4 570.992 359.365 573.042 359.26C575.131 359.152 577.658 358.941 580.736 358.658V322.207ZM599.198 300.758V337.741C599.198 345.138 599.893 350.801 601.286 354.729C602.679 358.693 604.984 362.551 608.21 366.337L585.717 372.142C584.508 370.089 583.519 368.072 582.788 366.125C582.09 364.214 581.541 362.303 581.175 360.428L580.956 360.534C565.753 368.426 555.715 372.354 550.808 372.354C543.299 372.354 536.962 369.628 531.723 364.214C526.485 358.799 523.848 352.216 523.848 344.466C523.848 334.804 527.51 327.69 534.874 323.125C542.199 318.561 553.701 316.294 569.418 316.294C570.698 316.294 572.092 316.294 573.556 316.33C575.056 316.365 577.439 316.508 580.736 316.72V297.431C580.736 291.345 579.343 286.638 576.559 283.275C573.776 279.911 569.855 278.249 564.799 278.249C560.845 278.249 551.358 284.231 536.41 296.192L533.3 298.67V276.372C540.661 274.284 547.582 272.729 553.995 271.701C560.441 270.676 566.266 270.146 571.504 270.146C582.239 270.146 589.526 272.056 593.411 275.842C597.255 279.664 599.198 287.946 599.198 300.758Z" fill="white"/>
<path d="M651.545 269.298V281.011C662.277 276.587 670.191 273.65 675.247 272.232C680.335 270.817 684.806 270.108 688.689 270.108C697.113 270.108 703.416 273.084 707.554 279.027C711.695 284.976 713.781 293.997 713.781 306.103V339.193C713.781 346.237 714.44 351.969 715.723 356.358C717.004 360.746 719.056 365.205 721.84 369.77H687.15C689.933 365.064 692.021 360.499 693.34 356.039C694.659 351.58 695.319 345.952 695.319 339.193V312.013C695.319 300.902 693.121 293.219 688.689 289.01C684.292 284.797 676.271 282.674 664.695 282.674C662.536 282.674 660.373 282.709 658.175 282.816C655.941 282.924 653.743 283.135 651.545 283.382V340.432C651.545 346.944 652.168 352.322 653.413 356.605C654.694 360.887 656.71 365.276 659.494 369.77H625.134C627.917 365.205 629.931 360.746 631.214 356.358C632.459 351.969 633.083 346.237 633.083 339.193V298.635C633.083 294.494 632.423 290.565 631.104 286.921C629.785 283.24 627.587 279.313 624.51 275.101L651.545 269.298Z" fill="white"/>
<path d="M810.083 283.594C807.446 282.39 804.772 281.541 802.025 280.975C799.277 280.445 796.348 280.162 793.196 280.162C782.719 280.162 774.441 283.808 768.324 291.062C762.244 298.316 759.202 308.191 759.202 320.718C759.202 333.46 762.464 343.156 769.019 349.811C775.578 356.499 785.102 359.826 797.593 359.826C799.203 359.826 801 359.719 802.975 359.472C804.918 359.224 807.3 358.835 810.083 358.268V283.594ZM828.55 219.218V336.185C828.55 344.467 829.2 350.731 830.52 355.013C831.84 359.26 834 363.295 837.01 367.187L810.083 372.779V360.251C804.148 364.25 798.508 367.293 793.125 369.417C787.739 371.506 782.868 372.566 778.507 372.566C767.299 372.566 757.957 368.036 750.486 358.976C742.974 349.916 739.24 338.52 739.24 324.754C739.24 309.749 743.854 296.972 753.086 286.355C762.354 275.738 773.27 270.43 785.907 270.43C790.339 270.43 794.515 270.996 798.472 272.092C802.426 273.188 806.311 274.886 810.083 277.153V254.468C810.083 249.69 809.35 245.23 807.885 241.054C806.421 236.842 803.673 231.676 799.681 225.554L828.55 219.218Z" fill="white"/>
<path d="M929.11 358.082C931.75 359.251 934.43 360.135 937.1 360.702C939.78 361.233 942.7 361.516 945.85 361.516C956.22 361.516 964.46 357.835 970.62 350.51C976.77 343.183 979.85 333.273 979.85 320.745C979.85 307.97 976.63 298.272 970.18 291.691C963.77 285.142 954.24 281.851 941.68 281.851C940.03 281.851 938.2 281.958 936.18 282.205C934.21 282.453 931.83 282.842 929.11 283.409V358.082ZM929.11 269.111V281.427C934.9 277.427 940.51 274.383 945.89 272.26C951.31 270.173 956.19 269.111 960.54 269.111C971.79 269.111 981.17 273.641 988.72 282.736C996.26 291.831 1000.03 303.227 1000.03 316.923C1000.03 331.859 995.38 344.634 986.08 355.287C976.77 365.94 965.78 371.248 953.04 371.248C948.82 371.248 944.72 370.682 940.69 369.55C936.7 368.417 932.85 366.648 929.11 364.312V383.989C929.11 390.501 929.74 395.88 930.98 400.163C932.27 404.445 934.28 408.833 937.06 413.328H902.7C905.49 408.692 907.5 404.197 908.78 399.844C910.03 395.492 910.65 389.793 910.65 382.75V298.449C910.65 294.521 909.96 290.629 908.56 286.841C907.17 283.019 905.01 279.056 902.08 274.915L929.11 269.111Z" fill="white"/>
<path d="M1047.14 269.111V283.408C1053.33 278.559 1058.61 275.091 1062.93 273.038C1067.29 270.951 1071.39 269.923 1075.31 269.923C1076.37 269.923 1077.66 270.066 1079.12 270.385C1080.55 270.702 1082.23 271.128 1084.06 271.693V292.963C1080.51 290.238 1076.59 288.186 1072.27 286.77C1067.98 285.354 1063.48 284.646 1058.79 284.646C1056.63 284.646 1054.61 284.718 1052.67 284.86C1050.77 285 1048.94 285.214 1047.14 285.461V339.008C1047.14 346.05 1047.8 351.782 1049.08 356.171C1050.37 360.56 1052.45 365.02 1055.31 369.584H1020.51C1023.37 364.878 1025.46 360.313 1026.74 355.854C1028.02 351.394 1028.68 345.766 1028.68 339.008V298.449C1028.68 294.662 1027.95 290.84 1026.52 286.983C1025.09 283.159 1022.89 279.126 1019.89 274.914L1047.14 269.111Z" fill="white"/>
<path d="M1124.94 269.111V339.008C1124.94 346.05 1125.61 351.782 1126.93 356.171C1128.24 360.56 1130.33 365.02 1133.11 369.584H1098.32C1101.17 364.878 1103.26 360.313 1104.54 355.854C1105.82 351.394 1106.48 345.766 1106.48 339.008V298.449C1106.48 294.662 1105.75 290.84 1104.32 286.983C1102.89 283.16 1100.7 279.126 1097.69 274.914L1124.94 269.111ZM1115.31 221.829C1118.72 221.829 1121.54 222.89 1123.74 224.978C1125.9 227.101 1127 229.828 1127 233.223C1127 236.94 1126.01 239.807 1123.99 241.789C1121.98 243.734 1119.09 244.726 1115.31 244.726C1111.72 244.726 1108.94 243.734 1106.92 241.718C1104.91 239.736 1103.92 236.869 1103.92 233.223C1103.92 229.828 1104.98 227.101 1107.07 224.978C1109.19 222.89 1111.94 221.829 1115.31 221.829Z" fill="white"/>
<path d="M1179.89 269.111V280.825C1190.62 276.401 1198.54 273.463 1203.59 272.048C1208.68 270.632 1213.15 269.923 1217.04 269.923C1225.46 269.923 1231.76 272.898 1235.9 278.843C1240.04 284.789 1242.13 293.812 1242.13 305.917V339.008C1242.13 346.05 1242.79 351.782 1244.07 356.171C1245.35 360.56 1247.4 365.02 1250.19 369.584H1215.5C1218.28 364.878 1220.37 360.313 1221.69 355.854C1223.01 351.394 1223.67 345.766 1223.67 339.008V311.826C1223.67 300.714 1221.47 293.034 1217.04 288.823C1212.64 284.612 1204.62 282.489 1193.04 282.489C1190.88 282.489 1188.72 282.523 1186.52 282.629C1184.29 282.736 1182.09 282.948 1179.89 283.196V340.246C1179.89 346.757 1180.51 352.136 1181.76 356.419C1183.04 360.702 1185.06 365.089 1187.84 369.584H1153.48C1156.26 365.02 1158.28 360.56 1159.56 356.171C1160.81 351.782 1161.43 346.05 1161.43 339.008V298.449C1161.43 294.308 1160.77 290.38 1159.45 286.735C1158.13 283.053 1155.93 279.126 1152.86 274.914L1179.89 269.111Z" fill="white"/>
<path d="M1294.84 243.203V271.305H1328.43V280.647H1294.84V338.371C1294.84 347.36 1296.41 353.129 1299.6 355.712C1302.79 358.296 1309.05 359.605 1318.35 359.605C1320.48 359.605 1322.86 359.499 1325.5 359.251C1328.1 359.003 1330.81 358.684 1333.59 358.259C1328.1 362.612 1322.39 365.975 1316.52 368.382C1310.66 370.753 1305.02 371.957 1299.67 371.957C1291.06 371.957 1285.06 369.762 1281.58 365.409C1278.1 361.055 1276.38 352.915 1276.38 340.954V280.647H1258.79C1266.6 274.277 1273.52 267.978 1279.56 261.714C1285.61 255.449 1290.7 249.291 1294.84 243.203Z" fill="white"/>
<path d="M1369.75 269.111V339.008C1369.75 346.05 1370.41 351.782 1371.73 356.171C1373.05 360.56 1375.13 365.02 1377.92 369.584H1343.12C1345.98 364.878 1348.06 360.313 1349.35 355.854C1350.63 351.394 1351.29 345.766 1351.29 339.008V298.449C1351.29 294.662 1350.56 290.84 1349.13 286.983C1347.7 283.16 1345.5 279.126 1342.5 274.914L1369.75 269.111ZM1360.12 221.829C1363.52 221.829 1366.34 222.89 1368.54 224.978C1370.7 227.101 1371.8 229.828 1371.8 233.223C1371.8 236.94 1370.81 239.807 1368.8 241.789C1366.78 243.734 1363.89 244.726 1360.12 244.726C1356.52 244.726 1353.74 243.734 1351.73 241.718C1349.71 239.736 1348.72 236.869 1348.72 233.223C1348.72 229.828 1349.79 227.101 1351.88 224.978C1354 222.89 1356.75 221.829 1360.12 221.829Z" fill="white"/>
<path d="M1424.7 269.111V280.825C1435.43 276.401 1443.34 273.463 1448.4 272.048C1453.49 270.632 1457.96 269.923 1461.84 269.923C1470.27 269.923 1476.57 272.898 1480.71 278.843C1484.84 284.789 1486.93 293.812 1486.93 305.917V339.008C1486.93 346.05 1487.59 351.782 1488.88 356.171C1490.16 360.56 1492.21 365.02 1494.99 369.584H1460.3C1463.09 364.878 1465.17 360.313 1466.49 355.854C1467.81 351.394 1468.47 345.766 1468.47 339.008V311.826C1468.47 300.714 1466.27 293.034 1461.84 288.823C1457.45 284.612 1449.42 282.489 1437.85 282.489C1435.69 282.489 1433.53 282.523 1431.33 282.629C1429.09 282.736 1426.9 282.948 1424.7 283.196V340.246C1424.7 346.757 1425.32 352.136 1426.57 356.419C1427.85 360.702 1429.86 365.089 1432.65 369.584H1398.29C1401.07 365.02 1403.09 360.56 1404.37 356.171C1405.61 351.782 1406.23 346.05 1406.23 339.008V298.449C1406.23 294.308 1405.58 290.38 1404.26 286.735C1402.94 283.053 1400.74 279.126 1397.66 274.914L1424.7 269.111Z" fill="white"/>
<path d="M1533.97 368.346C1531.48 371.248 1529.54 374.15 1528.22 377.052C1526.9 379.955 1526.24 382.644 1526.24 385.121C1526.24 390.713 1528.8 395.208 1533.97 398.641C1539.13 402.073 1545.98 403.772 1554.55 403.772C1564.15 403.772 1572.29 401.614 1578.95 397.26C1585.58 392.908 1588.91 387.705 1588.91 381.689C1588.91 377.301 1587.45 374.15 1584.56 372.345C1581.66 370.505 1576.42 369.585 1568.84 369.585H1548.25C1544.74 369.585 1541.95 369.479 1539.86 369.266C1537.82 369.054 1535.83 368.771 1533.97 368.346ZM1552.43 277.215C1546.86 277.215 1542.47 279.162 1539.24 283.09C1536.02 286.983 1534.41 292.327 1534.41 299.087C1534.41 306.979 1536.35 313.526 1540.19 318.693C1544.08 323.896 1548.84 326.479 1554.59 326.479C1559.79 326.479 1564.04 324.532 1567.3 320.604C1570.56 316.711 1572.17 311.579 1572.17 305.209C1572.17 296.928 1570.34 290.167 1566.64 285C1562.98 279.799 1558.22 277.215 1552.43 277.215ZM1608.44 269.96V285.319L1579.03 278.666C1582.83 281.851 1585.73 285.39 1587.67 289.354C1589.65 293.282 1590.64 297.459 1590.64 301.882C1590.64 311.226 1587.3 318.834 1580.6 324.709C1573.9 330.585 1565.25 333.522 1554.59 333.522C1553.24 333.522 1551.74 333.487 1550.08 333.38C1548.44 333.273 1546.57 333.097 1544.48 332.885C1543.64 334.478 1542.98 336.069 1542.58 337.627C1542.14 339.185 1541.92 340.564 1541.92 341.803C1541.92 345.484 1543.09 348.068 1545.47 349.624C1547.81 351.182 1551.95 351.96 1557.89 351.96H1577.01C1586.39 351.96 1593.06 353.553 1597.01 356.773C1601 359.994 1602.98 365.267 1602.98 372.593C1602.98 378.114 1601.77 383.317 1599.32 388.2C1596.9 393.049 1593.42 397.19 1588.91 400.588C1583.57 404.727 1577.56 407.878 1570.89 410.072C1564.22 412.231 1557.27 413.328 1549.97 413.328C1538.14 413.328 1528.25 411.099 1520.23 406.604C1512.21 402.109 1508.22 396.764 1508.22 390.642C1508.22 387.245 1509.72 383.953 1512.68 380.733C1515.65 377.512 1521.92 372.877 1531.51 366.79C1528.65 365.763 1526.38 364.17 1524.74 362.011C1523.09 359.888 1522.28 357.446 1522.28 354.756C1522.28 351.394 1523.86 347.961 1527.01 344.493C1530.16 341.06 1535.32 337.132 1542.58 332.709C1533.97 331.185 1527.3 327.824 1522.58 322.62C1517.85 317.455 1515.5 310.872 1515.5 302.943C1515.5 293.318 1519.06 285.426 1526.13 279.232C1533.2 273.038 1542.32 269.96 1553.49 269.96C1557.7 269.96 1561.66 270.526 1565.36 271.658C1569.06 272.827 1572.65 274.525 1576.13 276.791L1608.44 269.96Z" fill="white"/>
</svg>
