<svg width="1654" height="374" viewBox="0 0 1654 374" fill="none" xmlns="http://www.w3.org/2000/svg">
<g opacity="0.95">
<path d="M89.8607 4.65488L89.9668 5.29422V25.849H58.7706V165.152H31.9406V25.3167H0V4.65488H89.8607Z" fill="white"/>
<path d="M163.963 81.5493C163.963 68.4494 159.598 61.5268 148.312 61.5268C137.026 61.5268 132.661 68.9817 132.661 82.0816V163.874H106.576V0.39566H132.767V57.7998C134.995 53.5192 138.437 49.9931 142.661 47.6621C146.883 45.3332 151.698 44.3023 156.503 44.6989L156.51 44.7H163.324C182.063 44.7 190.793 55.3495 190.793 75.265V163.981H164.602V81.5493H163.963Z" fill="white"/>
<path fill-rule="evenodd" clip-rule="evenodd" d="M252.866 149.922C265.96 149.922 269.687 141.296 269.687 130.645V124.362H295.241V133.734C295.241 153.756 282.145 165.685 260.318 165.685H244.773C221.669 165.685 206.657 152.585 206.657 123.83V86.9802C206.657 59.5037 220.393 45.1252 243.496 45.1252H260.318C282.783 45.1252 295.879 57.5867 295.879 85.7025V111.263H233.487V123.723C233.487 141.828 239.77 149.922 252.866 149.922ZM247.39 60.3919C238.147 62.0662 232.849 69.7536 232.849 85.5954V92.5181H269.687V83.1461C269.687 66.9586 263.406 60.036 251.588 60.036C250.11 60.036 248.71 60.1522 247.39 60.3919Z" fill="white"/>
<path d="M391.808 4.6549L430.563 115.842V4.6549H453.028V164.406H423.11L376.263 32.3454V163.874H352.52V4.12262L391.808 4.6549Z" fill="white"/>
<path fill-rule="evenodd" clip-rule="evenodd" d="M535.861 130.653L535.862 130.645V124.362H561.414V133.734C561.414 153.756 548.318 165.685 526.492 165.685H510.947C487.844 165.685 472.831 152.585 472.831 123.83V86.9802C472.831 59.5037 486.566 45.1252 509.67 45.1252H526.492C548.957 45.1252 562.053 57.5867 562.053 85.7025V111.263H499.662V123.723C499.662 141.828 505.943 149.922 519.039 149.922C532.132 149.922 535.22 141.3 535.861 130.653ZM513.563 60.3919C504.321 62.0662 499.024 69.7536 499.024 85.5954V92.5181H535.862V83.1461C535.862 66.9586 529.579 60.036 517.761 60.036C516.285 60.036 514.884 60.1522 513.563 60.3919Z" fill="white"/>
<path d="M595.166 164.194L573.87 46.1907H600.062L613.371 137.994L627.106 46.1907H659.047L671.504 136.716L685.877 46.1907H709.194L687.367 164.194H655.427L641.373 71.7512L627.638 164.194H595.166Z" fill="white"/>
<path d="M852.181 4.65489L814.066 102.103V163.874H786.597V102.103L748.587 4.65489H777.974L802.888 74.9458L828.443 4.33572L852.181 4.65489Z" fill="white"/>
<path fill-rule="evenodd" clip-rule="evenodd" d="M937.039 123.83C937.468 149.496 926.282 165.685 900.84 165.685H883.802C880.681 165.685 877.765 165.432 875.063 164.939C856.168 161.49 847.603 146.288 847.603 123.83V86.9802C847.603 60.7814 859.421 45.1252 883.802 45.1252H900.84C925.221 45.1252 937.039 61.3137 937.039 86.9802V123.83ZM910.844 90.1758C910.844 70.1533 905.847 60.7814 892.744 60.7814C879.651 60.7814 874.013 70.1533 874.013 90.1758V120.741C874.013 140.124 879.651 150.135 892.744 150.135C905.847 150.135 910.844 140.124 910.844 120.741V90.1758Z" fill="white"/>
<path d="M1005.07 69.515C986.331 69.515 978.245 74.5196 978.245 94.5421V163.874H951.947V45.7645H978.133V61.953C979.315 57.1829 982.048 52.941 985.903 49.8942C989.757 46.8484 994.519 45.171 999.434 45.1252H1008.79V69.515H1005.07Z" fill="white"/>
<path d="M1084.28 163.981L1050.53 105.937V163.981H1024.34V0.39566H1050.53V96.246L1083.65 45.6585H1111.75L1076.84 98.163L1114.95 163.768L1084.28 163.981Z" fill="white"/>
<path d="M1248.25 4.65488L1248.36 5.29422V25.849H1217.16V165.152H1190.33V25.3167H1158.39V4.65488H1248.25Z" fill="white"/>
<path d="M1367.82 80.6969C1367.82 68.2363 1364.09 61.953 1353.44 61.953C1342.79 61.953 1339.07 69.4079 1339.07 81.3362V164.406H1312.87V46.4038H1338.43V58.225C1340.68 54.1096 1344.04 50.7028 1348.11 48.3892C1352.2 46.0755 1356.84 44.9447 1361.53 45.1252H1367.82C1372.67 44.6459 1377.54 45.7981 1381.67 48.3994V48.4034C1385.8 51.0067 1388.94 54.9131 1390.6 59.5037C1392.94 54.957 1396.55 51.1821 1400.99 48.6329L1401 48.6288C1405.43 46.0786 1410.51 44.8631 1415.62 45.1252H1422.54C1440 45.1252 1448.73 55.1364 1448.73 74.5196V164.406H1422.54V80.6969C1422.54 68.2363 1418.81 61.953 1408.16 61.953C1406.84 61.953 1405.62 62.0693 1404.49 62.2966C1396.64 63.8863 1393.8 70.8987 1393.8 81.3362V164.406H1367.17V80.6969H1367.82Z" fill="white"/>
<path fill-rule="evenodd" clip-rule="evenodd" d="M1512.08 149.922C1525.17 149.922 1529.01 141.296 1529.01 130.645V124.362H1554.56V133.734C1554.56 153.756 1541.47 165.685 1519.64 165.685H1503.98C1480.89 165.685 1465.87 152.585 1465.87 123.83V86.9802C1465.87 59.5037 1479.6 45.1252 1502.71 45.1252H1519.53C1542 45.1252 1555.09 57.5867 1555.09 85.7025V111.263H1492.71V123.723C1492.71 141.828 1498.99 149.922 1512.08 149.922ZM1506.72 60.3919C1497.47 62.0662 1492.18 69.7536 1492.18 85.5954V92.5181H1529.01V83.1461C1529.01 66.9586 1522.73 60.036 1510.91 60.036C1509.43 60.036 1508.03 60.1522 1506.72 60.3919Z" fill="white"/>
<path d="M1594.03 110.094C1579.06 102.128 1572.99 94.0965 1572.99 79.4192V72.6026C1572.99 55.1364 1582.99 45.1252 1603.54 45.1252H1620.36C1642.18 45.1252 1652.3 53.2194 1652.3 73.8813V81.9745H1627.28V75.6912C1627.61 73.6172 1627.45 71.4952 1626.82 69.4926C1626.43 68.2506 1625.87 67.0739 1625.14 65.9991C1624.7 65.3404 1624.2 64.7184 1623.65 64.1433C1623.51 63.9934 1623.36 63.8466 1623.22 63.7038C1622.16 62.7035 1620.95 61.8776 1619.65 61.2576C1619.25 61.072 1618.85 60.9048 1618.44 60.7559C1618.2 60.6672 1617.94 60.5856 1617.7 60.5112C1615.94 59.9891 1614.09 59.827 1612.26 60.036C1611.6 60.036 1610.96 60.0574 1610.35 60.1002C1601.09 60.7488 1597.25 66.146 1597.25 73.1359V74.9458C1597.25 83.0401 1600.99 86.2348 1609.07 89.9627L1628.46 98.6953C1646.56 106.79 1654 113.073 1654 129.9V137.994C1654 156.099 1643.35 166.11 1622.06 166.11H1605.24C1603.68 166.11 1602.17 166.074 1600.72 166C1579.02 164.892 1570.32 155.413 1570.32 135.545V125.533H1595.87V132.988C1595.87 143.639 1598.96 151.094 1612.69 151.094C1623.98 151.094 1628.34 144.811 1628.34 136.716V135.438C1628.34 127.344 1624.62 124.15 1616.53 120.422L1597.15 111.688C1596.07 111.156 1595.03 110.626 1594.03 110.094Z" fill="white"/>
<path d="M1293.5 8.91513H1266.03V35.1149H1293.5V8.91513Z" fill="white"/>
<path d="M1292.86 163.767V45.7645H1266.67V163.767H1292.86Z" fill="white"/>
<path d="M381.53 215.053C401.864 215.221 410.686 223.625 410.686 243.291V253.628H389.512V244.804C389.512 234.466 386.068 227.995 374.221 227.995C373.978 227.958 373.734 227.927 373.49 227.904C371.781 227.743 370.055 227.933 368.418 228.469C366.548 229.08 364.848 230.125 363.457 231.516C363.283 231.69 363.115 231.869 362.953 232.052C361.812 233.336 360.946 234.842 360.411 236.478C360.334 236.712 360.265 236.947 360.203 237.185C359.766 238.845 359.674 240.58 359.938 242.282V246.736C359.938 255.138 362.876 258.585 372.282 263.542C372.284 263.543 372.286 263.544 372.288 263.546L389.092 272.454C404.385 279.849 412.282 286.237 412.282 303.465V314.307C412.846 318.191 412.495 322.152 411.259 325.876C411.183 326.108 411.101 326.34 411.018 326.57C409.759 330.02 407.762 333.158 405.162 335.759C404.815 336.105 404.458 336.442 404.093 336.767C401.536 339.042 398.539 340.777 395.281 341.859C391.558 343.095 387.597 343.445 383.716 342.881H367.5C346.831 342.881 336.496 334.477 336.496 312.794V299.515H358.677V310.861C358.677 321.702 362.122 329.098 375.481 329.098C377.561 329.359 379.672 329.132 381.65 328.436L381.656 328.434C383.634 327.737 385.424 326.59 386.883 325.082C388.34 323.575 389.428 321.749 390.059 319.751L390.061 319.745C390.692 317.744 390.85 315.623 390.521 313.551V307.667C390.521 298.759 387.076 294.893 378.169 290.439L361.366 282.035C359.339 280.984 357.457 279.957 355.714 278.933C343.515 271.761 338.176 264.711 338.176 250.518V242.114C338.124 241.652 338.086 241.189 338.06 240.725C337.883 237.484 338.351 234.233 339.442 231.165C340.689 227.658 342.716 224.482 345.37 221.874C345.703 221.548 346.043 221.232 346.392 220.927C348.834 218.787 351.68 217.15 354.767 216.116C358.293 214.935 362.042 214.571 365.729 215.052L365.734 215.053H381.53Z" fill="white"/>
<path d="M451.099 318.257C451.519 325.653 453.453 328.09 460.425 328.09H466.812V341.873H445.638C443.546 342.082 441.433 341.814 439.459 341.09C439.335 341.045 439.212 340.998 439.091 340.949C437.261 340.22 435.606 339.111 434.235 337.693C434.052 337.505 433.875 337.311 433.704 337.112C432.504 335.723 431.588 334.109 431.012 332.361C430.353 330.364 430.154 328.243 430.43 326.157V264.049H419.507V248.753H430.43V223.54H451.099V248.753H466.391V264.049H451.099V318.257Z" fill="white"/>
<path d="M504.536 347.168L474.961 248.838H497.647L513.863 313.551L527.642 248.501H546.882L520.752 357.758C517.812 370.112 513.358 372.549 502.52 372.549H484.792V359.186H491.681C499.579 359.186 502.52 357.673 504.452 349.353L504.536 347.168Z" fill="white"/>
<path fill-rule="evenodd" clip-rule="evenodd" d="M624.769 330.695C635.103 330.695 637.624 324.392 638.128 315.988V311.029H658.293V317.92C658.293 333.721 647.959 343.134 630.734 343.134H618.384C600.152 343.134 588.305 332.797 588.305 310.105V281.026C588.305 259.343 599.143 247.997 617.375 247.997H630.652C648.379 247.997 658.713 257.83 658.713 280.018V300.188H609.478V310.021C609.478 324.309 614.434 330.695 624.769 330.695ZM623.845 259.763C614.519 259.763 609.058 265.646 609.058 279.933V285.397H638.128V278.001C638.128 265.226 633.171 259.763 623.845 259.763Z" fill="white"/>
<path d="M738.7 216.061L755.925 306.744L773.149 216.061H805.16V342.126H785.416V233.29L763.234 341.706H744.498L723.326 233.794V341.706H705.176V215.641L738.7 216.061Z" fill="white"/>
<path fill-rule="evenodd" clip-rule="evenodd" d="M858.432 339.958C861.114 338.52 863.428 336.513 865.233 334.089V340.444H885.403V270.94C885.403 255.225 879.937 246.316 860.196 246.316H846.92C845.747 246.316 844.615 246.353 843.534 246.425C827.229 247.506 820.284 256.601 820.284 270.94V277.328H840.699V272.37C840.445 270.587 840.598 268.771 841.128 267.052C841.668 265.333 842.586 263.757 843.81 262.436C845.023 261.117 846.532 260.087 848.204 259.421V259.419C849.877 258.753 851.671 258.47 853.466 258.586L853.476 258.587C862.878 258.587 865.825 263.041 865.825 270.94V275.395C865.825 280.774 863.887 284.22 858.931 285.228C858.136 285.352 857.341 285.47 856.545 285.583C850.958 286.374 845.329 286.902 839.69 287.162C839.517 287.164 839.343 287.168 839.17 287.174C836.549 287.272 833.98 287.879 831.594 288.966C831.441 289.039 831.278 289.113 831.125 289.19C828.769 290.336 826.663 291.933 824.92 293.891C824.687 294.152 824.463 294.419 824.245 294.691C822.719 296.597 821.552 298.766 820.802 301.095C820.695 301.427 820.597 301.762 820.508 302.099C819.884 304.456 819.693 306.91 819.948 309.341C819.948 309.343 819.948 309.346 819.948 309.348V320.694C819.911 321.065 819.884 321.436 819.867 321.807C819.75 324.406 820.146 327.006 821.035 329.458C822.052 332.26 823.686 334.797 825.816 336.88C827.943 338.963 830.513 340.537 833.337 341.489C833.337 341.49 833.348 341.491 833.348 341.492C836.172 342.444 839.17 342.747 842.127 342.377H847.338C851.192 342.623 855.036 341.785 858.432 339.958ZM852.803 330.359C854.639 330.483 856.484 330.212 858.218 329.563C859.941 328.915 861.511 327.903 862.817 326.598C862.857 326.557 862.898 326.516 862.939 326.474C863.347 326.061 863.714 325.623 864.06 325.162C864.06 325.158 864.06 325.154 864.071 325.151C864.101 325.108 864.132 325.066 864.162 325.023C864.835 324.092 865.376 323.075 865.784 321.994C865.865 321.778 865.937 321.561 866.008 321.34C866.498 319.804 866.691 318.189 866.579 316.576V291.616C866.436 291.806 866.283 291.991 866.13 292.171C865.039 293.43 863.673 294.42 862.123 295.061C860.624 295.835 858.717 296.323 856.698 296.818C856.556 296.851 856.423 296.884 856.29 296.917C856.056 296.972 855.832 297.028 855.607 297.084C854.006 297.477 852.354 297.906 850.784 298.507C850.611 298.539 850.437 298.575 850.264 298.616C847.705 299.219 845.451 300.746 843.932 302.913C843.728 303.201 843.544 303.499 843.371 303.804C842.168 305.936 841.719 308.426 842.127 310.861V318.257C840.954 325.653 844.401 330.359 852.803 330.359Z" fill="white"/>
<path fill-rule="evenodd" clip-rule="evenodd" d="M899.26 278.589C899.26 257.41 908.59 247.997 923.885 247.997H928.841C932.757 247.762 936.672 248.599 940.149 250.421C943.626 252.241 946.543 254.976 948.582 258.33V258.334V249.006H969.251V347.168C969.251 364.929 959.901 373.809 941.189 373.809H927.413C926.21 373.809 925.048 373.777 923.936 373.711C907.224 372.734 900.351 364.48 900.351 350.614V347.168H921.02V348.176C921.02 355.068 923.967 360.531 934.296 360.531C944.636 360.531 948.582 354.647 948.582 344.73V329.771C948.47 329.999 948.358 330.223 948.236 330.446C946.431 333.784 943.739 336.558 940.435 338.453C936.927 340.474 932.889 341.401 928.841 341.117H923.885C922.03 341.117 920.265 340.971 918.583 340.675C906.785 338.599 899.26 329.131 899.26 310.525V278.589ZM933.766 328.343C943.055 328.317 948.501 321.926 948.501 307.164V282.455C948.501 281.53 948.48 280.639 948.429 279.779C947.756 266.89 942.066 261.276 933.715 261.276C924.803 261.276 919.929 267.663 919.929 282.455V307.079C920.439 321.926 924.874 328.317 933.746 328.343" fill="white"/>
<path fill-rule="evenodd" clip-rule="evenodd" d="M1020.59 339.958C1023.27 338.52 1025.59 336.513 1027.39 334.091V340.444H1047.56V271.025C1047.56 255.309 1042.1 246.401 1022.36 246.401H1009.08C990.338 246.401 982.446 255.729 982.446 271.025V277.412H1002.78V272.454C1002.52 270.673 1002.67 268.858 1003.21 267.141V267.136C1003.75 265.418 1004.65 263.84 1005.88 262.52C1007.1 261.2 1008.6 260.171 1010.27 259.505L1010.28 259.503C1011.96 258.837 1013.75 258.552 1015.54 258.671C1024.96 258.671 1027.9 263.125 1027.9 271.025V275.479C1027.9 280.858 1025.97 284.303 1021.01 285.312C1014.64 286.303 1008.21 286.948 1001.77 287.245C999.006 287.324 996.293 287.969 993.795 289.144C993.642 289.217 993.489 289.293 993.336 289.369C991.021 290.529 988.962 292.123 987.249 294.068C985.434 296.142 984.057 298.57 983.211 301.199C982.375 303.827 982.079 306.602 982.364 309.348V320.694C982.058 323.66 982.425 326.656 983.445 329.458C984.465 332.26 986.096 334.797 988.228 336.88C990.359 338.963 992.928 340.537 995.753 341.489C995.753 341.49 995.753 341.491 995.753 341.492C998.577 342.444 1001.59 342.747 1004.54 342.378H1009.5C1013.35 342.623 1017.2 341.785 1020.59 339.958ZM1014.96 330.359C1016.8 330.483 1018.64 330.212 1020.38 329.563C1022.1 328.915 1023.67 327.905 1024.98 326.602V326.598C1026.28 325.292 1027.29 323.722 1027.94 321.994C1028.03 321.778 1028.1 321.561 1028.17 321.34C1028.66 319.804 1028.85 318.189 1028.74 316.576V291.616C1028.6 291.806 1028.44 291.991 1028.29 292.171C1027.2 293.43 1025.83 294.42 1024.28 295.061C1024.09 295.164 1023.88 295.263 1023.66 295.356C1022.16 296.012 1020.35 296.454 1018.45 296.917C1016.64 297.358 1014.74 297.819 1012.94 298.507C1011.55 298.732 1010.21 299.23 1009.01 299.973C1007.8 300.715 1006.76 301.689 1005.93 302.836C1005.83 302.98 1005.73 303.126 1005.63 303.274C1004.96 304.308 1004.47 305.451 1004.19 306.652C1004.19 306.655 1004.19 306.658 1004.19 306.66C1004.04 307.24 1003.96 307.829 1003.92 308.42C1003.91 308.593 1003.9 308.767 1003.9 308.941C1003.89 309.582 1003.93 310.225 1004.03 310.861V318.257C1003.92 319.182 1003.87 320.064 1003.9 320.9C1004.05 326.756 1007.61 330.359 1014.96 330.359Z" fill="white"/>
<path d="M1061.42 324.729L1097.88 264.638H1061.42V248.838H1120.24V267.075L1083.27 326.661H1121.16V342.461H1061.42V324.729Z" fill="white"/>
<path d="M1214.76 277.076C1214.76 266.738 1211.31 261.276 1202.41 261.276C1201.3 261.276 1200.26 261.368 1199.3 261.548C1192.59 262.809 1189.64 268.398 1189.64 277.076V342.126H1168.97V249.006H1189.14V258.839C1190.96 255.378 1193.75 252.517 1197.16 250.594V250.592C1200.58 248.668 1204.46 247.768 1208.38 247.997H1213.75C1227.53 247.997 1234.92 256.402 1234.92 272.117V342.546H1214.25V276.992L1214.76 277.076Z" fill="white"/>
<path fill-rule="evenodd" clip-rule="evenodd" d="M1283.49 330.695C1293.83 330.695 1296.35 323.888 1296.35 315.483V310.525H1316.5V317.92C1316.5 333.721 1306.18 343.134 1288.95 343.134H1277.1C1274.82 343.134 1272.65 342.972 1270.58 342.645C1256.1 340.357 1247.02 329.96 1247.02 310.105V281.026C1247.02 259.343 1257.86 247.997 1276.09 247.997H1289.37C1307.09 247.997 1317.43 257.83 1317.43 280.018V300.188H1268.19V310.021C1268.19 324.309 1273.16 330.695 1283.49 330.695ZM1282.56 259.763C1273.24 259.763 1267.77 265.646 1267.77 279.933V285.397H1296.85V278.001C1296.85 265.226 1291.89 259.763 1282.56 259.763Z" fill="white"/>
<path d="M576.29 341.789V212.699H555.62V341.789H576.29Z" fill="white"/>
<path d="M1154.52 219.423H1132.84V240.097H1154.52V219.423Z" fill="white"/>
<path d="M1154.01 341.621V248.501H1133.35V341.621H1154.01Z" fill="white"/>
</g>
</svg>
