<svg viewBox="0 0 16 16" fill="none" xmlns="http://www.w3.org/2000/svg">
  <style>
    path {
      fill: black;
    }

    @media (prefers-color-scheme: dark) {
      path {
        fill: white;
      }
    }
  </style>
  <path fill-rule="evenodd" clip-rule="evenodd"
        d="M8.5 16C12.6421 16 16 12.6421 16 8.5C16 4.35786 12.6421 1 8.5 1C4.35786 1 1 4.35786 1 8.5C1 12.6421 4.35786 16 8.5 16ZM8.5 15.2303C12.217 15.2303 15.2303 12.217 15.2303 8.5C15.2303 4.78297 12.217 1.76971 8.5 1.76971C4.78297 1.76971 1.76971 4.78297 1.76971 8.5C1.76971 12.217 4.78297 15.2303 8.5 15.2303Z" />
  <path
        d="M10.7985 3H10.2015C10.1008 3 10 3.10872 10 3.24849V11.4063C10 11.4995 9.9874 11.5772 9.97481 11.6548L9.55164 12.742L9.03778 11.6548C9.01259 11.5772 9 11.4995 9 11.4063V3.24849C9 3.10872 8.91184 3 8.79849 3H8.20151C8.08816 3 8 3.10872 8 3.24849V11.4063C8 11.4995 7.9874 11.5772 7.96222 11.6548L7.44836 12.742L7.03778 11.6548C7.01259 11.5772 7 11.4995 7 11.4063V3.24849C7 3.10872 6.91184 3 6.79849 3H6.20151C6.08816 3 6 3.10872 6 3.24849V11.4063C6 11.7636 6.08816 12.1052 6.25189 12.4003L6.93199 13.8758C6.95718 13.9534 7.03275 14 7.10831 14H7.80101C7.87658 14 7.93955 13.9534 7.97733 13.8758L8.5063 12.742L9.02267 13.8758C9.06045 13.9534 9.12342 14 9.19899 14H9.90428C9.97985 14 10.0428 13.9534 10.0806 13.8758L10.7607 12.4003C10.9118 12.1052 11 11.7636 11 11.4063V3.24849C11 3.10872 10.9118 3 10.7985 3Z" />
</svg>